# Blender v2.79 (sub 0) OBJ File: ''
# www.blender.org
mtllib Divider.mtl
o Icosphere.017_Icosphere.000
v -3.985564 0.851594 -0.000003
v -3.548885 1.156683 -0.000003
v -3.196151 1.728683 -0.000003
v -2.919684 1.967017 -0.000003
v -2.662284 2.157684 -0.000003
v -2.061683 2.348350 -0.000003
v -1.708950 2.577151 -0.000003
v -1.299016 2.863151 -0.000003
v -0.927216 2.977551 -0.000002
v -0.441016 2.853617 -0.000003
v -0.193149 2.615284 -0.000003
v 0.159585 2.853617 -0.000003
v 0.760185 3.063351 -0.000002
v 1.494252 2.863151 -0.000002
v 1.980453 2.319751 -0.000002
v 2.304587 2.090950 -0.000002
v 2.743120 2.214884 -0.000002
v 3.276988 2.090950 -0.000002
v 3.667854 1.671483 -0.000002
v 3.734587 1.185283 -0.000002
v 3.753654 0.851616 -0.000002
v 4.201722 0.346349 -0.000002
v 4.287522 -0.216118 -0.000002
v 4.163589 -0.864385 -0.000002
v 3.639254 -1.283852 -0.000002
v 3.095854 -1.464986 -0.000002
v 2.447587 -1.283852 -0.000002
v 1.989986 -0.797652 -0.000002
v 1.742120 -0.740452 -0.000001
v 1.332186 -0.912052 -0.000001
v 0.788785 -0.759518 -0.000001
v 0.216784 -0.654652 -0.000001
v -0.374282 -0.902519 -0.000001
v -1.213216 -0.816718 -0.000001
v -1.556416 -1.045519 -0.000001
v -1.956817 -1.026452 -0.000001
v -2.328617 -0.788118 -0.000001
v -2.452551 -0.444918 -0.000001
v -3.129418 -0.664185 -0.000000
v -3.672818 -0.549785 -0.000000
v -4.035085 -0.130318 -0.000000
v -4.073218 0.270082 -0.000000
v -4.044618 0.565616 -0.000000
v -3.985564 0.851594 0.042834
v -3.548885 1.156683 0.042834
v -3.196151 1.728683 0.042834
v -2.919684 1.967017 0.042834
v -2.662284 2.157684 0.042834
v -2.061683 2.348351 0.042834
v -1.708950 2.577151 0.042834
v -1.299016 2.863151 0.042835
v -0.927216 2.977551 0.042835
v -0.441016 2.853617 0.042835
v -0.193149 2.615284 0.042834
v 0.159585 2.853617 0.042835
v 0.760185 3.063351 0.042835
v 1.494252 2.863151 0.042835
v 1.980453 2.319751 0.042835
v 2.304587 2.090950 0.042835
v 2.743120 2.214884 0.042835
v 3.276988 2.090950 0.042835
v 3.667854 1.671483 0.042835
v 3.734587 1.185283 0.042835
v 3.753654 0.851616 0.042835
v 4.201722 0.346349 0.042835
v 4.287522 -0.216118 0.042835
v 4.163589 -0.864385 0.042835
v 3.639254 -1.283852 0.042835
v 3.095854 -1.464986 0.042835
v 2.447587 -1.283852 0.042835
v 1.989986 -0.797652 0.042835
v 1.742120 -0.740452 0.042836
v 1.332186 -0.912052 0.042836
v 0.788785 -0.759518 0.042836
v 0.216784 -0.654652 0.042836
v -0.374282 -0.902518 0.042836
v -1.213216 -0.816718 0.042836
v -1.556416 -1.045519 0.042836
v -1.956817 -1.026452 0.042836
v -2.328617 -0.788118 0.042836
v -2.452551 -0.444918 0.042836
v -3.129418 -0.664185 0.042837
v -3.672818 -0.549785 0.042837
v -4.035085 -0.130318 0.042837
v -4.073218 0.270082 0.042837
v -4.044618 0.565616 0.042837
vt 0.000000 0.000000
vt 0.000000 0.000000
vt 0.000000 0.000000
vt 0.000000 0.000000
vt 0.000000 0.000000
vt 0.000000 0.000000
vt 0.000000 0.000000
vt 0.000000 0.000000
vt 0.000000 0.000000
vt 0.000000 0.000000
vt 0.000000 0.000000
vt 0.000000 0.000000
vt 0.000000 0.000000
vt 0.000000 0.000000
vt 0.000000 0.000000
vt 0.000000 0.000000
vt 0.000000 0.000000
vt 0.000000 0.000000
vt 0.000000 0.000000
vt 0.000000 0.000000
vt 0.000000 0.000000
vt 0.000000 0.000000
vt 0.000000 0.000000
vt 0.000000 0.000000
vt 0.000000 0.000000
vt 0.000000 0.000000
vt 0.000000 0.000000
vt 0.000000 0.000000
vt 0.000000 0.000000
vt 0.000000 0.000000
vt 0.000000 0.000000
vt 0.000000 0.000000
vt 0.000000 0.000000
vt 0.000000 0.000000
vt 0.000000 0.000000
vt 0.000000 0.000000
vt 0.000000 0.000000
vt 0.000000 0.000000
vt 0.000000 0.000000
vt 0.000000 0.000000
vt 0.000000 0.000000
vt 0.000000 0.000000
vt 0.000000 0.000000
vt 0.000000 0.000000
vt 0.000000 0.000000
vt 0.000000 0.000000
vt 0.000000 0.000000
vt 0.000000 0.000000
vt 0.000000 0.000000
vt 0.000000 0.000000
vt 0.000000 0.000000
vt 0.000000 0.000000
vt 0.000000 0.000000
vt 0.000000 0.000000
vt 0.000000 0.000000
vt 0.000000 0.000000
vt 0.000000 0.000000
vt 0.000000 0.000000
vt 0.000000 0.000000
vt 0.000000 0.000000
vt 0.000000 0.000000
vt 0.000000 0.000000
vt 0.000000 0.000000
vt 0.000000 0.000000
vt 0.000000 0.000000
vt 0.000000 0.000000
vt 0.000000 0.000000
vt 0.000000 0.000000
vt 0.000000 0.000000
vt 0.000000 0.000000
vt 0.000000 0.000000
vt 0.000000 0.000000
vt 0.000000 0.000000
vt 0.000000 0.000000
vt 0.000000 0.000000
vt 0.000000 0.000000
vt 0.000000 0.000000
vt 0.000000 0.000000
vt 0.000000 0.000000
vt 0.000000 0.000000
vt 0.000000 0.000000
vt 0.000000 0.000000
vt 0.000000 0.000000
vt 0.000000 0.000000
vt 0.000000 0.000000
vt 0.000000 0.000000
vn -0.0000 -0.0000 -1.0000
vn 0.0000 0.0000 1.0000
vn 0.6247 -0.7809 0.0000
vn -0.5599 0.8286 -0.0000
vn 0.3082 -0.9513 0.0000
vn 0.3162 -0.9487 0.0000
vn -0.3297 0.9441 0.0000
vn -0.2060 -0.9785 0.0000
vn -0.2691 -0.9631 0.0000
vn 0.2631 0.9648 0.0000
vn -0.7568 -0.6536 0.0000
vn -0.7282 -0.6854 0.0000
vn 0.7452 0.6668 0.0000
vn -0.9955 -0.0948 0.0000
vn -0.5727 0.8197 0.0000
vn -0.2249 -0.9744 0.0000
vn 0.5767 0.8170 0.0000
vn -0.9953 0.0963 -0.0000
vn -0.8512 0.5249 -0.0000
vn 0.3861 -0.9224 0.0000
vn -0.2720 0.9623 -0.0000
vn -0.9793 0.2022 -0.0000
vn -0.6529 0.7574 -0.0000
vn -0.2703 -0.9628 0.0000
vn 0.2261 0.9741 -0.0000
vn -0.5952 0.8036 0.0000
vn -0.1803 -0.9836 0.0000
vn 0.7316 0.6817 0.0000
vn -0.3026 0.9531 -0.0000
vn 0.3867 -0.9222 0.0000
vn 0.9907 0.1360 0.0000
vn -0.5442 0.8390 -0.0000
vn -0.1017 -0.9948 0.0000
vn 0.9984 0.0571 0.0000
vn -0.5722 0.8201 0.0000
vn 0.5547 -0.8320 0.0000
vn 0.7482 0.6635 -0.0000
vn -0.2941 0.9558 0.0000
vn -0.0476 -0.9989 0.0000
vn 0.9886 0.1508 -0.0000
vn 0.2470 0.9690 0.0000
vn -0.5397 -0.8419 0.0000
vn 0.9822 -0.1878 0.0000
vn 0.6931 0.7208 -0.0000
vn -0.9406 -0.3396 0.0000
usemtl Mat
s off
f 2/1/1 3/2/1 4/3/1 5/4/1 6/5/1 7/6/1 8/7/1 9/8/1 10/9/1 11/10/1 12/11/1 13/12/1 14/13/1 15/14/1 16/15/1 17/16/1 18/17/1 19/18/1 20/19/1 21/20/1 22/21/1 23/22/1 24/23/1 25/24/1 26/25/1 27/26/1 28/27/1 29/28/1 30/29/1 31/30/1 32/31/1 33/32/1 34/33/1 35/34/1 36/35/1 37/36/1 38/37/1 39/38/1 40/39/1 41/40/1 42/41/1 43/42/1 1/43/1
f 45/44/2 44/45/2 86/46/2 85/47/2 84/48/2 83/49/2 82/50/2 81/51/2 80/52/2 79/53/2 78/54/2 77/55/2 76/56/2 75/57/2 74/58/2 73/59/2 72/60/2 71/61/2 70/62/2 69/63/2 68/64/2 67/65/2 66/66/2 65/67/2 64/68/2 63/69/2 62/70/2 61/71/2 60/72/2 59/73/2 58/74/2 57/75/2 56/76/2 55/77/2 54/78/2 53/79/2 52/80/2 51/81/2 50/82/2 49/83/2 48/84/2 47/85/2 46/86/2
f 25/24/3 24/23/3 67/65/3 68/64/3
f 12/11/4 11/10/4 54/78/4 55/77/4
f 39/38/5 38/37/5 81/51/5 82/50/5
f 26/25/6 25/24/6 68/64/6 69/63/6
f 13/12/7 12/11/7 55/77/7 56/76/7
f 40/39/8 39/38/8 82/50/8 83/49/8
f 27/26/9 26/25/9 69/63/9 70/62/9
f 14/13/10 13/12/10 56/76/10 57/75/10
f 41/40/11 40/39/11 83/49/11 84/48/11
f 28/27/12 27/26/12 70/62/12 71/61/12
f 15/14/13 14/13/13 57/75/13 58/74/13
f 42/41/14 41/40/14 84/48/14 85/47/14
f 2/1/15 1/43/15 44/45/15 45/44/15
f 29/28/16 28/27/16 71/61/16 72/60/16
f 16/15/17 15/14/17 58/74/17 59/73/17
f 43/42/18 42/41/18 85/47/18 86/46/18
f 3/2/19 2/1/19 45/44/19 46/86/19
f 30/29/20 29/28/20 72/60/20 73/59/20
f 17/16/21 16/15/21 59/73/21 60/72/21
f 1/43/22 43/42/22 86/46/22 44/45/22
f 4/3/23 3/2/23 46/86/23 47/85/23
f 31/30/24 30/29/24 73/59/24 74/58/24
f 18/17/25 17/16/25 60/72/25 61/71/25
f 5/4/26 4/3/26 47/85/26 48/84/26
f 32/31/27 31/30/27 74/58/27 75/57/27
f 19/18/28 18/17/28 61/71/28 62/70/28
f 6/5/29 5/4/29 48/84/29 49/83/29
f 33/32/30 32/31/30 75/57/30 76/56/30
f 20/19/31 19/18/31 62/70/31 63/69/31
f 7/6/32 6/5/32 49/83/32 50/82/32
f 34/33/33 33/32/33 76/56/33 77/55/33
f 21/20/34 20/19/34 63/69/34 64/68/34
f 8/7/35 7/6/35 50/82/35 51/81/35
f 35/34/36 34/33/36 77/55/36 78/54/36
f 22/21/37 21/20/37 64/68/37 65/67/37
f 9/8/38 8/7/38 51/81/38 52/80/38
f 36/35/39 35/34/39 78/54/39 79/53/39
f 23/22/40 22/21/40 65/67/40 66/66/40
f 10/9/41 9/8/41 52/80/41 53/79/41
f 37/36/42 36/35/42 79/53/42 80/52/42
f 24/23/43 23/22/43 66/66/43 67/65/43
f 11/10/44 10/9/44 53/79/44 54/78/44
f 38/37/45 37/36/45 80/52/45 81/51/45
